<?xml version="1.0" encoding="utf-8"?>
<!-- Generator: Adobe Illustrator 16.0.0, SVG Export Plug-In . SVG Version: 6.00 Build 0)  -->
<!DOCTYPE svg PUBLIC "-//W3C//DTD SVG 1.1//EN" "http://www.w3.org/Graphics/SVG/1.1/DTD/svg11.dtd">
<svg version="1.1" id="Layer_1" xmlns="http://www.w3.org/2000/svg" xmlns:xlink="http://www.w3.org/1999/xlink" x="0px" y="0px"
	 width="1600px" height="1067px" viewBox="0 0 1600 1067" enable-background="new 0 0 1600 1067" xml:space="preserve">
<rect fill="#FFB8E6" width="1600" height="1067"/>
<g>
	<g>
		<path fill="#6F5D60" d="M655.168,702.77h9.116v4.656c0,4.947,1.067,7.468,2.522,8.631c1.455,1.262,3.103,1.262,4.364,1.262
			c1.649,0,2.812-0.195,3.492-0.681c0.678-0.386,1.26-0.774,1.551-1.259c1.261-1.552,1.843-4.171,1.843-7.953v-52.468h9.116v52.468
			c0,5.917-1.261,10.57-3.879,13.771c-1.843,2.328-5.528,5.236-12.123,5.236c-6.498,0-10.184-2.908-12.123-5.236
			c-2.618-3.201-3.879-7.854-3.879-13.771V702.77z"/>
		<path fill="#6F5D60" d="M694.443,675.229c0-6.304,1.358-11.251,4.073-14.741c1.067-1.262,2.521-2.62,4.655-3.783
			c2.134-1.065,4.751-1.843,8.243-1.843c6.982,0,10.862,3.006,12.898,5.626c2.715,3.49,4.073,8.438,4.073,14.741v30.742
			c0,6.304-1.358,11.251-4.073,14.741c-2.036,2.62-5.916,5.626-12.898,5.626c-6.886,0-10.862-3.006-12.898-5.626
			c-2.715-3.49-4.073-8.438-4.073-14.741V675.229z M703.559,705.971c0,5.722,1.261,8.438,2.91,9.796
			c1.648,1.356,3.491,1.455,4.946,1.455c1.26,0,3.297-0.099,4.946-1.455c1.648-1.357,2.909-4.074,2.909-9.796v-30.742
			c0-5.529-1.261-8.438-2.909-9.796c-1.649-1.358-3.686-1.358-4.946-1.358c-1.455,0-3.298,0-4.946,1.358
			c-1.649,1.357-2.91,4.267-2.91,9.796V705.971z"/>
		<path fill="#6F5D60" d="M745.744,726.434h-9.116v-71.476h9.116V726.434z"/>
		<path fill="#6F5D60" d="M779.879,726.338l-17.456-43.255v43.255h-9.116v-71.477h7.661l17.457,43.255v-43.255h9.213v71.477H779.879
			z"/>
		<path fill="#6F5D60" d="M824.388,654.861h40.441v9.213h-15.614v62.264h-9.213v-62.264h-15.614V654.861z"/>
		<path fill="#6F5D60" d="M891.982,686.091v-31.133h9.213v71.476h-9.213v-31.13h-13.773v31.13h-9.114v-71.476h9.114v31.133H891.982z
			"/>
		<path fill="#6F5D60" d="M938.338,654.958v9.116h-20.464v22.017h20.464v9.116h-20.464v22.111h20.464v9.115h-29.582v-71.476H938.338
			z"/>
	</g>
	<g>
		<path fill="#EE73AA" d="M701.953,735.289v14.949h-33.558v36.103h33.558v14.95h-33.558v51.211h-14.95V735.289H701.953z"/>
		<path fill="#EE73AA" d="M734.555,852.502h-14.95V735.289h14.95V852.502z"/>
		<path fill="#EE73AA" d="M749.027,768.527c0-20.991,9.383-33.238,27.833-33.238c18.607,0,27.993,12.247,27.993,33.238v7.477
			h-15.112v-7.477c0-8.428-1.589-13.04-3.976-15.584c-2.544-2.387-5.725-2.705-8.906-2.705c-3.181,0-6.361,0.318-8.747,2.705
			c-2.545,2.544-4.136,7.156-4.136,15.584v50.577c0,9.383,2.067,13.836,4.771,16.062c2.704,2.228,5.726,2.387,8.111,2.387
			c2.385,0,5.566-0.159,8.269-2.387c2.546-2.226,4.612-6.679,4.612-16.062v-8.907h-18.13v-15.109h33.242v24.017
			c0,10.495-2.228,18.607-6.841,24.174c-3.339,4.294-9.701,9.224-21.152,9.224c-11.292,0-17.654-4.93-20.994-9.224
			c-4.612-5.566-6.838-13.679-6.838-24.174V768.527z"/>
		<path fill="#EE73AA" d="M854.469,786.341v-51.052h15.111v117.213h-15.111V801.45h-22.584v51.052h-14.948V735.289h14.948v51.052
			H854.469z"/>
		<path fill="#EE73AA" d="M884.209,735.13h66.318v15.108h-25.604v102.105h-15.11V750.238h-25.604V735.13z"/>
	</g>
	<g>
		<path fill="#6F5D60" d="M661.666,907.099h9.116v4.557c0,4.171,0.775,7.177,2.231,9.02c0.291,0.485,0.872,0.874,1.746,1.358
			c0.873,0.484,2.133,0.776,3.976,0.776c3.492,0,5.431-1.746,6.595-3.879c1.067-2.135,1.26-4.851,1.26-6.79
			c0-3.395-1.163-5.623-2.812-7.273c-1.649-1.551-3.88-2.617-5.917-3.49l-1.745-0.777c-2.037-0.873-5.529-2.327-8.632-5.333
			c-3.879-3.782-5.819-8.535-5.819-14.354c0-6.11,1.649-11.251,4.752-14.838c3.007-3.491,7.273-5.625,12.316-5.625
			c6.983,0,10.862,3.006,12.899,5.625c2.812,3.587,4.17,8.534,4.17,14.838v4.558h-9.214v-4.558c0-5.528-1.26-8.534-2.909-9.893
			s-3.685-1.358-4.946-1.358c-3.782,0-5.625,2.038-6.692,4.56c-1.163,2.521-1.26,5.431-1.26,6.691c0,3.395,1.164,5.626,2.812,7.37
			c1.649,1.746,3.879,3.008,6.207,3.881l1.551,0.678c1.843,0.776,5.334,2.036,8.438,5.042c3.976,3.687,6.013,8.438,6.013,14.257
			c0,10.959-6.11,19.785-17.069,19.785c-11.346,0-17.068-7.469-17.068-20.271V907.099z"/>
		<path fill="#6F5D60" d="M700.164,860.45h9.116v52.467c0,4.945,1.067,7.469,2.522,8.632c1.455,1.261,3.103,1.261,4.364,1.261
			s2.909,0,4.364-1.261c1.455-1.163,2.522-3.687,2.522-8.632V860.45h9.116v52.467c0,5.915-1.261,10.475-3.879,13.675
			c-1.939,2.618-5.625,5.334-12.123,5.334s-10.184-2.716-12.123-5.334c-2.618-3.2-3.879-7.76-3.879-13.675V860.45z"/>
		<path fill="#6F5D60" d="M748.554,900.795v31.131h-9.116V860.45h14.838c12.123,0,18.233,7.272,18.233,20.075
			c0,13.093-5.916,20.27-18.233,20.27H748.554z M748.554,869.662v21.918h5.722c2.522,0,4.267-0.289,5.141-0.873
			c0.872-0.581,1.455-1.066,1.745-1.355c1.455-1.455,2.134-4.463,2.134-8.826c0-4.656-0.776-7.37-2.23-8.924
			c-1.552-1.551-3.782-1.939-6.789-1.939H748.554z"/>
		<path fill="#6F5D60" d="M785.793,900.795v31.131h-9.117V860.45h14.839c12.121,0,18.23,7.272,18.23,20.075
			c0,13.093-5.917,20.27-18.23,20.27H785.793z M785.793,869.662v21.918h5.722c2.521,0,4.267-0.289,5.138-0.873
			c0.874-0.581,1.455-1.066,1.747-1.355c1.455-1.455,2.133-4.463,2.133-8.826c0-4.656-0.775-7.37-2.229-8.924
			c-1.551-1.551-3.782-1.939-6.788-1.939H785.793z"/>
		<path fill="#6F5D60" d="M813.913,880.816c0-6.303,1.36-11.25,4.076-14.741c1.064-1.262,2.52-2.619,4.652-3.782
			c2.136-1.066,4.754-1.843,8.246-1.843c6.981,0,10.86,3.006,12.898,5.625c2.713,3.491,4.072,8.438,4.072,14.741v30.742
			c0,6.304-1.359,11.251-4.072,14.742c-2.038,2.619-5.917,5.625-12.898,5.625c-6.887,0-10.864-3.006-12.898-5.625
			c-2.716-3.491-4.076-8.438-4.076-14.742V880.816z M823.031,911.559c0,5.723,1.262,8.438,2.909,9.797
			c1.648,1.355,3.493,1.454,4.947,1.454c1.258,0,3.296-0.099,4.943-1.454c1.648-1.358,2.909-4.074,2.909-9.797v-30.742
			c0-5.528-1.261-8.438-2.909-9.796c-1.647-1.358-3.686-1.358-4.943-1.358c-1.454,0-3.299,0-4.947,1.358
			c-1.647,1.358-2.909,4.268-2.909,9.796V911.559z"/>
		<path fill="#6F5D60" d="M886.354,931.926h-9.213v-21.142c0-6.305-3.004-9.407-9.114-9.407h-5.724v30.549h-9.114V860.45h14.838
			c12.315,0,18.134,7.08,18.134,20.366c0,6.596-1.454,11.638-4.266,15.031c-0.098,0.097-0.291,0.292-0.39,0.485
			c-0.193,0.194-0.387,0.388-0.58,0.484c3.489,3.395,5.429,8.05,5.429,13.967V931.926z M862.303,892.164h5.724
			c2.425,0,4.171-0.292,5.141-0.873c0.871-0.584,1.455-1.068,1.746-1.358c1.455-1.843,2.133-4.849,2.133-9.116
			c0-4.752-0.776-7.564-2.231-9.215c-1.553-1.551-3.784-1.939-6.788-1.939h-5.724V892.164z"/>
		<path fill="#6F5D60" d="M893.627,860.45h40.441v9.212h-15.614v62.264h-9.213v-62.264h-15.614V860.45z"/>
	</g>
	<g>
		<defs>
			<path id="SVGID_1_" d="M800.929,135.076c-52.241,0.299-62.449,40.229-62.449,40.229l-3.604,37.832
				c0,0,27.021-28.824,63.05-28.223c36.025,0.6,61.85,24.619,61.85,24.619l4.803-1.201l-2.7-31.826c0,0-8.641-41.438-60.39-41.433
				C801.304,135.074,801.114,135.074,800.929,135.076"/>
		</defs>
		<clipPath id="SVGID_2_">
			<use xlink:href="#SVGID_1_"  overflow="visible"/>
		</clipPath>
		
			<linearGradient id="SVGID_3_" gradientUnits="userSpaceOnUse" x1="400.4062" y1="935.75" x2="402.3465" y2="935.75" gradientTransform="matrix(73.1083 0 0 -73.1083 -28542.3125 68585.1875)">
			<stop  offset="0" style="stop-color:#B84077"/>
			<stop  offset="0.0315" style="stop-color:#BC457D"/>
			<stop  offset="0.2207" style="stop-color:#D25E99"/>
			<stop  offset="0.3851" style="stop-color:#DF6DAB"/>
			<stop  offset="0.5052" style="stop-color:#E472B1"/>
			<stop  offset="0.6242" style="stop-color:#DE6CAA"/>
			<stop  offset="0.8013" style="stop-color:#CF5A96"/>
			<stop  offset="1" style="stop-color:#B84077"/>
		</linearGradient>
		<rect x="734.876" y="135.068" clip-path="url(#SVGID_2_)" fill="url(#SVGID_3_)" width="129.703" height="78.069"/>
	</g>
	<g>
		<defs>
			<path id="SVGID_4_" d="M859.776,197.226c-3.606,16.211-15.013,42.632-33.028,67.252
				c-18.013,24.619-128.502,195.156-128.502,195.156l-50.44,78.062l51.642,91.272c0,0,78.663-115.891,101.481-154.32
				c22.818-38.434,61.249-108.688,71.458-133.908c10.205-25.221,22.815-58.248,12.008-102.084
				c-10.807-43.834-19.217-61.849-24.618-69.656c-2.106-3.036-3.391-5.258-4.175-6.833
				C857.936,168.993,862.522,184.857,859.776,197.226 M855.602,162.167c-0.724-2.122-1.231-3.374-1.231-3.374
				S854.37,159.689,855.602,162.167"/>
		</defs>
		<clipPath id="SVGID_5_">
			<use xlink:href="#SVGID_4_"  overflow="visible"/>
		</clipPath>
		
			<linearGradient id="SVGID_6_" gradientUnits="userSpaceOnUse" x1="400.7856" y1="933.2939" x2="402.7255" y2="933.2939" gradientTransform="matrix(133.1293 -212.6972 -212.6972 -133.1293 145791.3125 210101)">
			<stop  offset="0" style="stop-color:#DD4F99"/>
			<stop  offset="0.5052" style="stop-color:#E98EC1"/>
			<stop  offset="1" style="stop-color:#DD4F99"/>
		</linearGradient>
		<polygon clip-path="url(#SVGID_5_)" fill="url(#SVGID_6_)" points="436.356,496.619 717.445,47.533 1106.654,291.141 
			825.565,740.229 		"/>
	</g>
	<g>
		<defs>
			<path id="SVGID_7_" d="M740.224,169c-5.404,7.807-13.812,25.822-24.622,69.656c-10.808,43.836,1.801,76.863,12.011,102.084
				c10.21,25.219,48.639,95.474,71.458,133.908c22.817,38.429,101.48,154.32,101.48,154.32l51.644-91.272l-50.446-78.062
				c0,0-110.484-170.537-128.499-195.156c-18.013-24.621-29.424-51.041-33.025-67.252c-2.749-12.368,1.841-28.232,4.171-35.059
				C743.612,163.743,742.326,165.964,740.224,169 M744.395,162.167c1.232-2.478,1.232-3.374,1.232-3.374
				S745.121,160.045,744.395,162.167"/>
		</defs>
		<clipPath id="SVGID_8_">
			<use xlink:href="#SVGID_7_"  overflow="visible"/>
		</clipPath>
		
			<linearGradient id="SVGID_9_" gradientUnits="userSpaceOnUse" x1="400.2485" y1="933.2383" x2="402.1876" y2="933.2383" gradientTransform="matrix(159.7551 209.2916 209.2916 -159.7551 -258589 65509.6875)">
			<stop  offset="0" style="stop-color:#DD4F99"/>
			<stop  offset="0.0715" style="stop-color:#E05FA3"/>
			<stop  offset="0.2595" style="stop-color:#E885BA"/>
			<stop  offset="0.4107" style="stop-color:#EC9CC8"/>
			<stop  offset="0.5052" style="stop-color:#EEA5CD"/>
			<stop  offset="0.5965" style="stop-color:#ED9FC9"/>
			<stop  offset="0.7213" style="stop-color:#E98DBF"/>
			<stop  offset="0.8646" style="stop-color:#E471AD"/>
			<stop  offset="1" style="stop-color:#DD4F99"/>
		</linearGradient>
		<polygon clip-path="url(#SVGID_8_)" fill="url(#SVGID_9_)" points="861.113,39.474 1178.958,455.874 795.874,748.288 
			478.028,331.887 		"/>
	</g>
</g>
</svg>
